<svg xmlns="http://www.w3.org/2000/svg" viewBox="0 0 80 80">
  <circle cx="40" cy="40" r="36" fill="#FFCC66"/>
  <circle cx="40" cy="40" r="36" fill="none" stroke="#E6A800" stroke-width="2"/>
  <!-- Hair -->
  <path d="M 16 32 Q 20 12 40 10 Q 60 12 64 32 Q 58 20 40 19 Q 22 20 16 32" fill="#3D2B1F"/>
  <!-- Eyes with sunglasses -->
  <rect x="18" y="35" width="18" height="10" rx="5" fill="#1a1a2e"/>
  <rect x="44" y="35" width="18" height="10" rx="5" fill="#1a1a2e"/>
  <line x1="36" y1="40" x2="44" y2="40" stroke="#888" stroke-width="2"/>
  <line x1="18" y1="38" x2="14" y2="36" stroke="#888" stroke-width="2"/>
  <line x1="62" y1="38" x2="66" y2="36" stroke="#888" stroke-width="2"/>
  <!-- Shine on glasses -->
  <rect x="20" y="37" width="6" height="2" rx="1" fill="rgba(255,255,255,0.4)"/>
  <rect x="46" y="37" width="6" height="2" rx="1" fill="rgba(255,255,255,0.4)"/>
  <!-- Smile -->
  <path d="M 28 54 Q 40 64 52 54" stroke="#D4860A" stroke-width="2.5" fill="none" stroke-linecap="round"/>
</svg>
