<svg xmlns="http://www.w3.org/2000/svg" viewBox="0 0 80 80">
  <circle cx="40" cy="40" r="36" fill="#CC2200"/>
  <circle cx="40" cy="40" r="36" fill="none" stroke="#880000" stroke-width="2"/>
  <!-- Devil horns -->
  <polygon points="22,16 16,2 30,14" fill="#AA0000"/>
  <polygon points="58,16 64,2 50,14" fill="#AA0000"/>
  <!-- Eyebrows slanted evil -->
  <path d="M 18 32 Q 28 27 33 33" stroke="#660000" stroke-width="3" fill="none" stroke-linecap="round"/>
  <path d="M 62 32 Q 52 27 47 33" stroke="#660000" stroke-width="3" fill="none" stroke-linecap="round"/>
  <!-- Eyes with glow -->
  <circle cx="28" cy="39" r="7" fill="#FFD700"/>
  <circle cx="52" cy="39" r="7" fill="#FFD700"/>
  <ellipse cx="28" cy="39" rx="3" ry="5" fill="#330000"/>
  <ellipse cx="52" cy="39" rx="3" ry="5" fill="#330000"/>
  <circle cx="27" cy="37" r="1.5" fill="rgba(255,200,0,0.6)"/>
  <!-- Evil grin -->
  <path d="M 24 55 Q 40 68 56 55 Q 48 60 40 58 Q 32 60 24 55" fill="#880000" stroke="#660000" stroke-width="1"/>
  <!-- Fangs -->
  <polygon points="33,58 30,65 36,58" fill="white"/>
  <polygon points="47,58 44,65 50,58" fill="white"/>
</svg>
