<svg xmlns="http://www.w3.org/2000/svg" viewBox="0 0 80 80">
  <circle cx="40" cy="40" r="36" fill="#8B5E3C"/>
  <circle cx="40" cy="40" r="36" fill="none" stroke="#5C3A1E" stroke-width="2"/>
  <!-- Monkey ears -->
  <circle cx="10" cy="38" r="10" fill="#8B5E3C" stroke="#5C3A1E" stroke-width="2"/>
  <circle cx="10" cy="38" r="6" fill="#CC9966"/>
  <circle cx="70" cy="38" r="10" fill="#8B5E3C" stroke="#5C3A1E" stroke-width="2"/>
  <circle cx="70" cy="38" r="6" fill="#CC9966"/>
  <!-- Face oval -->
  <ellipse cx="40" cy="44" rx="20" ry="18" fill="#CC9966"/>
  <!-- Hands over eyes -->
  <rect x="14" y="28" width="20" height="16" rx="6" fill="#5C3A1E"/>
  <rect x="46" y="28" width="20" height="16" rx="6" fill="#5C3A1E"/>
  <!-- Finger lines -->
  <line x1="18" y1="28" x2="18" y2="44" stroke="#8B5E3C" stroke-width="1.5"/>
  <line x1="22" y1="27" x2="22" y2="44" stroke="#8B5E3C" stroke-width="1.5"/>
  <line x1="26" y1="27" x2="26" y2="44" stroke="#8B5E3C" stroke-width="1.5"/>
  <line x1="50" y1="28" x2="50" y2="44" stroke="#8B5E3C" stroke-width="1.5"/>
  <line x1="54" y1="27" x2="54" y2="44" stroke="#8B5E3C" stroke-width="1.5"/>
  <line x1="58" y1="27" x2="58" y2="44" stroke="#8B5E3C" stroke-width="1.5"/>
  <!-- Mouth -->
  <path d="M 28 58 Q 40 66 52 58" stroke="#5C3A1E" stroke-width="2.5" fill="none" stroke-linecap="round"/>
  <!-- Nostrils -->
  <circle cx="36" cy="53" r="2.5" fill="#5C3A1E"/>
  <circle cx="44" cy="53" r="2.5" fill="#5C3A1E"/>
</svg>
