<svg xmlns="http://www.w3.org/2000/svg" viewBox="0 0 80 80">
  <circle cx="40" cy="40" r="36" fill="#FF9ECD"/>
  <circle cx="40" cy="40" r="36" fill="none" stroke="#E060A0" stroke-width="2"/>
  <!-- Party hat -->
  <polygon points="40,2 22,28 58,28" fill="#FF4444"/>
  <polygon points="40,2 22,28 58,28" fill="none" stroke="#CC0000" stroke-width="1"/>
  <circle cx="40" cy="2" r="3" fill="#FFD700"/>
  <line x1="28" y1="24" x2="52" y2="24" stroke="#FFD700" stroke-width="2"/>
  <!-- Stars on hat -->
  <text x="36" y="20" font-size="8" fill="#FFD700">★</text>
  <!-- Eyes (party) -->
  <circle cx="28" cy="40" r="7" fill="white"/>
  <circle cx="52" cy="40" r="7" fill="white"/>
  <circle cx="30" cy="40" r="4" fill="#FF1493"/>
  <circle cx="54" cy="40" r="4" fill="#FF1493"/>
  <circle cx="31" cy="39" r="1.5" fill="white"/>
  <circle cx="55" cy="39" r="1.5" fill="white"/>
  <!-- Party tongue out -->
  <path d="M 30 54 Q 40 62 50 54 Q 40 58 30 54" fill="#CC0044" stroke="#CC0044" stroke-width="1"/>
  <ellipse cx="40" cy="59" rx="5" ry="4" fill="#FF6688"/>
  <!-- Rosy cheeks -->
  <circle cx="20" cy="48" r="5" fill="rgba(255,100,150,0.4)"/>
  <circle cx="60" cy="48" r="5" fill="rgba(255,100,150,0.4)"/>
</svg>
