<svg xmlns="http://www.w3.org/2000/svg" viewBox="0 0 80 80">
  <circle cx="40" cy="40" r="36" fill="#EECCFF"/>
  <circle cx="40" cy="40" r="36" fill="none" stroke="#AA66CC" stroke-width="2"/>
  <!-- Scared hair standing up -->
  <line x1="28" y1="14" x2="26" y2="2" stroke="#5533AA" stroke-width="3" stroke-linecap="round"/>
  <line x1="36" y1="12" x2="35" y2="1" stroke="#5533AA" stroke-width="3" stroke-linecap="round"/>
  <line x1="44" y1="12" x2="45" y2="1" stroke="#5533AA" stroke-width="3" stroke-linecap="round"/>
  <line x1="52" y1="14" x2="54" y2="2" stroke="#5533AA" stroke-width="3" stroke-linecap="round"/>
  <!-- Wide eyes -->
  <circle cx="26" cy="38" r="10" fill="white" stroke="#AA66CC" stroke-width="1"/>
  <circle cx="54" cy="38" r="10" fill="white" stroke="#AA66CC" stroke-width="1"/>
  <circle cx="26" cy="38" r="6" fill="#6633AA"/>
  <circle cx="54" cy="38" r="6" fill="#6633AA"/>
  <circle cx="24" cy="36" r="2.5" fill="white"/>
  <circle cx="52" cy="36" r="2.5" fill="white"/>
  <!-- Shaky scared mouth -->
  <path d="M 28 57 Q 30 54 33 57 Q 36 60 40 57 Q 44 54 47 57 Q 50 60 52 57" stroke="#AA66CC" stroke-width="2.5" fill="none" stroke-linecap="round"/>
  <!-- Sweat drop -->
  <path d="M 64 34 Q 66 40 64 44" stroke="#AAAAFF" stroke-width="2" fill="none" stroke-linecap="round"/>
  <circle cx="64" cy="45" r="2.5" fill="#AAAAFF"/>
</svg>
